<?xml version="1.0" standalone="no"?>
<!DOCTYPE svg PUBLIC "-//W3C//DTD SVG 20010904//EN"
 "http://www.w3.org/TR/2001/REC-SVG-20010904/DTD/svg10.dtd">
<svg version="1.0" xmlns="http://www.w3.org/2000/svg"
 width="370.000000pt" height="370.000000pt" viewBox="0 0 370.000000 370.000000"
 preserveAspectRatio="xMidYMid meet">
<metadata>
Created by potrace 1.14, written by Peter Selinger 2001-2017
</metadata>
<g transform="translate(0.000000,370.000000) scale(0.100000,-0.100000)"
fill="#000000" stroke="none">
<path d="M280 3372 c-51 -24 -223 -195 -249 -247 -27 -54 -29 -126 -6 -181 11
-28 161 -184 535 -559 286 -286 520 -523 520 -526 0 -4 -234 -240 -519 -526
-372 -373 -524 -531 -536 -559 -23 -55 -21 -125 4 -177 27 -55 206 -232 256
-253 50 -21 125 -20 172 3 58 27 1397 1368 1423 1424 25 55 25 115 1 171 -25
59 -1365 1401 -1426 1429 -49 23 -128 23 -175 1z"/>
<path d="M1762 829 c-98 -18 -156 -106 -158 -243 -2 -128 29 -198 110 -253 37
-25 49 -27 132 -27 116 0 174 26 217 96 80 130 46 353 -63 409 -40 21 -167 30
-238 18z m178 -89 c38 -20 60 -86 57 -176 -4 -127 -47 -178 -149 -177 -94 0
-141 68 -137 196 3 98 33 158 84 169 35 8 122 0 145 -12z"/>
<path d="M2207 826 c-1 -6 -3 -123 -2 -261 l0 -250 53 -3 c45 -3 52 -1 52 15
0 10 25 44 56 75 l55 56 82 -47 c45 -26 103 -59 129 -74 l47 -26 411 0 411 0
-22 37 c-12 20 -78 135 -147 255 -78 137 -133 222 -145 226 -19 7 -96 6 -102
-1 -1 -2 -64 -116 -141 -254 l-139 -252 -150 101 c-82 55 -152 102 -154 104
-3 2 64 70 148 152 84 82 149 150 145 153 -5 3 -37 4 -71 4 l-62 -2 -176 -178
-175 -178 0 179 0 178 -50 1 c-27 0 -51 -5 -53 -10z m998 -269 c30 -81 55
-149 55 -152 0 -3 -52 -5 -115 -5 -63 0 -115 2 -115 5 0 3 15 47 34 98 19 51
37 103 41 116 13 42 36 93 40 89 3 -2 30 -70 60 -151z"/>
<path d="M3582 571 l-1 -260 22 -3 c12 -2 37 -1 55 1 l32 3 0 259 0 259 -54 0
-53 0 -1 -259z"/>
</g>
</svg>
